<?xml version="1.0" standalone="no"?>
<!DOCTYPE svg PUBLIC "-//W3C//DTD SVG 20010904//EN"
 "http://www.w3.org/TR/2001/REC-SVG-20010904/DTD/svg10.dtd">
<svg version="1.0" xmlns="http://www.w3.org/2000/svg"
 width="2800.000000pt" height="2800.000000pt" viewBox="0 0 2800.000000 2800.000000"
 preserveAspectRatio="xMidYMid meet">
<metadata>
Created by potrace 1.11, written by Peter Selinger 2001-2013
</metadata>
<g transform="translate(0.000000,2800.000000) scale(0.100000,-0.100000)"
fill="#000000" stroke="none">
<path d="M8320 27160 c0 -36 4 -50 14 -50 14 0 33 -29 77 -120 12 -25 29 -54
39 -65 9 -11 23 -36 30 -55 7 -19 21 -44 30 -55 9 -11 36 -56 60 -100 24 -44
52 -91 62 -104 10 -14 28 -43 38 -65 11 -23 36 -66 55 -96 37 -59 58 -98 99
-174 14 -27 32 -57 40 -65 8 -9 24 -36 36 -61 11 -25 38 -74 60 -110 22 -36
46 -78 54 -95 8 -16 26 -45 40 -64 14 -19 26 -42 26 -51 0 -9 10 -25 21 -36
12 -10 31 -37 41 -59 11 -22 37 -69 59 -105 22 -36 48 -83 59 -105 11 -22 36
-67 55 -100 18 -33 48 -85 65 -115 17 -30 44 -75 60 -100 17 -25 41 -68 54
-97 14 -28 30 -54 37 -58 6 -4 20 -27 30 -51 11 -24 24 -46 29 -49 5 -3 18
-25 30 -48 11 -23 35 -69 54 -102 19 -33 43 -76 53 -95 9 -19 30 -54 45 -77
16 -23 28 -46 28 -52 0 -5 11 -22 24 -38 13 -15 26 -38 30 -50 4 -12 20 -38
36 -58 17 -21 30 -45 30 -54 0 -9 14 -32 30 -51 16 -19 30 -42 30 -50 0 -8 13
-34 28 -57 58 -90 82 -131 82 -140 0 -6 13 -28 29 -50 16 -22 32 -50 36 -64 4
-13 16 -33 26 -44 10 -11 25 -38 34 -60 10 -22 25 -49 35 -60 11 -11 26 -36
34 -56 8 -20 22 -41 30 -49 9 -7 16 -18 16 -25 0 -7 16 -36 35 -64 19 -28 35
-56 35 -63 0 -7 14 -31 30 -52 17 -22 30 -45 30 -51 0 -7 9 -20 20 -30 10 -9
25 -34 31 -53 7 -20 25 -54 40 -76 16 -21 29 -43 29 -48 0 -5 11 -24 24 -41
13 -18 27 -43 31 -57 4 -13 23 -47 41 -73 19 -27 34 -54 34 -59 0 -6 11 -23
25 -40 14 -16 25 -35 25 -42 0 -8 10 -26 22 -41 22 -28 51 -79 88 -152 11 -23
25 -45 31 -49 6 -4 22 -30 35 -58 14 -28 32 -64 42 -80 80 -135 116 -198 137
-243 13 -28 29 -54 36 -58 6 -4 20 -27 30 -50 10 -23 26 -48 34 -55 8 -7 15
-18 15 -24 0 -7 16 -35 35 -62 19 -27 35 -56 35 -65 0 -9 7 -23 17 -30 9 -8
27 -37 39 -66 13 -28 27 -54 33 -57 5 -4 21 -30 35 -59 14 -28 39 -74 56 -102
17 -27 38 -66 48 -85 9 -19 28 -51 42 -70 14 -19 32 -47 40 -62 17 -30 54 -94
105 -183 19 -33 43 -79 55 -102 11 -23 25 -45 30 -48 5 -3 20 -29 35 -58 34
-68 57 -110 87 -155 14 -20 28 -47 32 -59 4 -12 20 -38 36 -58 17 -21 30 -44
30 -52 0 -13 47 -90 90 -145 11 -14 20 -33 20 -41 0 -8 13 -32 29 -54 16 -22
32 -50 36 -64 4 -13 15 -33 25 -44 9 -11 22 -34 29 -52 7 -18 19 -37 27 -44 7
-6 25 -34 39 -62 44 -88 81 -154 103 -182 12 -15 22 -35 22 -45 0 -9 10 -25
21 -36 12 -10 30 -38 39 -60 10 -23 23 -45 29 -48 6 -4 20 -26 31 -49 12 -23
34 -64 50 -92 17 -27 41 -74 56 -102 14 -29 29 -55 34 -58 5 -3 19 -27 30 -53
11 -25 28 -54 36 -63 15 -17 47 -72 82 -144 11 -22 32 -55 46 -74 14 -19 26
-40 26 -47 0 -7 10 -25 23 -41 12 -15 30 -44 40 -63 10 -19 31 -57 47 -85 16
-27 41 -74 55 -102 15 -29 31 -56 37 -59 6 -4 19 -27 30 -53 11 -25 27 -53 34
-62 13 -14 34 -52 81 -144 9 -16 24 -39 34 -50 10 -11 25 -37 33 -57 9 -20 21
-40 27 -44 6 -3 22 -30 36 -58 30 -63 54 -106 85 -154 30 -48 52 -86 80 -142
13 -25 33 -58 44 -75 12 -16 29 -46 38 -65 9 -19 32 -60 51 -90 19 -30 42 -71
51 -90 9 -19 27 -47 39 -62 13 -15 29 -43 35 -63 6 -19 16 -35 21 -35 5 0 20
-24 33 -52 12 -29 30 -59 39 -67 10 -7 17 -21 17 -30 0 -9 14 -36 30 -61 16
-25 30 -50 30 -55 0 -6 16 -32 35 -59 19 -27 35 -55 35 -62 0 -7 6 -19 14 -26
7 -8 23 -33 35 -55 11 -23 26 -45 31 -48 6 -4 22 -30 36 -58 37 -77 71 -137
87 -156 8 -9 24 -36 36 -61 36 -73 65 -124 89 -157 12 -17 22 -36 22 -42 0 -6
16 -34 35 -62 19 -28 35 -57 35 -64 0 -7 7 -19 17 -26 9 -8 25 -33 35 -56 10
-23 23 -45 29 -49 6 -3 19 -26 30 -50 10 -24 27 -54 38 -65 11 -12 23 -34 26
-49 3 -16 14 -35 25 -45 10 -9 24 -31 31 -48 7 -18 20 -41 29 -52 9 -11 23
-36 30 -55 8 -19 24 -48 37 -63 13 -16 23 -33 23 -38 0 -6 13 -29 29 -52 15
-23 32 -53 36 -67 4 -14 17 -36 30 -50 13 -14 26 -36 30 -50 4 -14 18 -38 31
-53 13 -16 24 -35 24 -42 0 -7 10 -26 23 -42 13 -15 33 -46 44 -68 50 -97 74
-139 82 -145 4 -3 20 -30 34 -60 15 -30 47 -86 71 -125 25 -38 45 -76 46 -84
0 -7 13 -30 29 -50 15 -20 32 -47 36 -61 4 -14 15 -33 24 -43 19 -23 63 -97
90 -153 11 -23 24 -45 30 -48 6 -4 21 -28 35 -54 44 -87 75 -144 87 -159 7 -7
23 -35 36 -61 34 -67 57 -107 87 -152 14 -22 26 -46 26 -53 0 -8 10 -27 23
-42 26 -34 69 -104 97 -161 18 -38 19 -45 6 -81 -7 -21 -24 -55 -37 -75 -28
-42 -53 -83 -94 -155 -16 -29 -48 -83 -70 -121 -61 -104 -72 -123 -100 -177
-14 -27 -44 -79 -65 -115 -22 -36 -45 -76 -52 -90 -7 -14 -25 -43 -40 -64 -16
-21 -28 -45 -28 -52 0 -7 -10 -25 -23 -41 -13 -15 -29 -42 -36 -60 -7 -18 -19
-37 -27 -44 -7 -6 -25 -34 -39 -62 -14 -29 -39 -74 -55 -102 -16 -27 -40 -73
-54 -102 -14 -28 -30 -54 -35 -57 -6 -4 -19 -26 -30 -50 -10 -24 -24 -46 -30
-50 -6 -4 -20 -26 -31 -49 -12 -23 -34 -64 -50 -92 -16 -27 -41 -72 -56 -100
-14 -27 -33 -57 -40 -66 -13 -14 -31 -46 -88 -154 -11 -23 -31 -55 -43 -72
-13 -17 -23 -36 -23 -42 0 -6 -12 -29 -26 -51 -28 -41 -48 -78 -84 -147 -12
-22 -30 -49 -41 -59 -10 -9 -19 -24 -19 -33 0 -9 -11 -32 -24 -52 -25 -36 -48
-75 -94 -159 -14 -25 -32 -53 -40 -62 -8 -10 -25 -39 -39 -65 -13 -26 -37 -70
-53 -98 -16 -27 -41 -72 -55 -100 -41 -78 -79 -141 -98 -162 -9 -11 -17 -26
-17 -35 0 -8 -13 -32 -30 -53 -16 -20 -32 -46 -36 -57 -3 -11 -19 -39 -35 -63
-16 -24 -29 -46 -29 -50 0 -4 -10 -20 -21 -37 -12 -16 -31 -48 -43 -71 -12
-23 -35 -64 -51 -92 -62 -109 -85 -152 -110 -197 -13 -26 -29 -50 -35 -53 -6
-4 -21 -30 -34 -58 -12 -29 -30 -58 -39 -66 -10 -7 -17 -18 -17 -24 0 -5 -21
-45 -47 -89 -27 -43 -61 -103 -78 -133 -43 -76 -91 -162 -125 -220 -16 -27
-37 -66 -47 -85 -9 -19 -28 -48 -40 -63 -13 -16 -23 -34 -23 -41 0 -7 -12 -28
-26 -47 -14 -19 -32 -47 -40 -64 -8 -16 -32 -59 -54 -95 -21 -36 -50 -88 -64
-117 -14 -28 -29 -54 -35 -57 -6 -4 -20 -26 -31 -49 -12 -23 -36 -69 -56 -102
-19 -33 -43 -79 -54 -101 -11 -23 -26 -47 -34 -53 -8 -6 -20 -26 -27 -44 -7
-18 -23 -45 -36 -60 -13 -16 -23 -33 -23 -39 0 -5 -9 -22 -19 -37 -19 -26 -51
-83 -98 -170 -12 -25 -29 -52 -37 -60 -7 -9 -23 -36 -35 -61 -25 -51 -45 -88
-81 -145 -14 -22 -33 -56 -43 -75 -9 -19 -33 -60 -52 -90 -19 -30 -44 -74 -55
-97 -12 -22 -30 -49 -41 -59 -10 -9 -19 -24 -19 -32 0 -13 -37 -79 -96 -172
-12 -19 -43 -74 -68 -121 -26 -48 -53 -92 -61 -99 -8 -7 -15 -20 -15 -29 0 -9
-16 -40 -35 -68 -19 -29 -35 -55 -35 -59 0 -4 -7 -15 -15 -24 -17 -18 -49 -75
-86 -150 -12 -25 -32 -59 -45 -75 -12 -17 -27 -41 -33 -55 -6 -14 -29 -54 -51
-90 -21 -36 -50 -87 -63 -115 -13 -27 -31 -56 -40 -64 -10 -7 -17 -21 -17 -30
0 -9 -14 -34 -30 -55 -17 -22 -30 -44 -30 -49 0 -11 -66 -123 -90 -152 -9 -11
-25 -39 -35 -63 -10 -23 -24 -47 -32 -53 -7 -7 -22 -30 -33 -53 -11 -22 -35
-68 -54 -101 -20 -33 -44 -79 -56 -102 -11 -23 -25 -45 -31 -49 -5 -3 -21 -30
-33 -59 -13 -29 -29 -55 -35 -59 -6 -4 -20 -26 -31 -49 -37 -73 -66 -124 -88
-152 -12 -15 -22 -32 -22 -37 0 -6 -8 -22 -19 -36 -10 -15 -33 -54 -51 -87
-18 -33 -43 -78 -56 -100 -13 -22 -34 -60 -46 -85 -13 -26 -33 -59 -46 -74
-12 -16 -22 -34 -22 -41 0 -7 -9 -23 -19 -37 -19 -24 -48 -73 -98 -167 -12
-25 -29 -52 -37 -60 -7 -9 -24 -36 -37 -60 -13 -23 -38 -68 -56 -100 -17 -31
-39 -71 -48 -90 -9 -19 -27 -49 -40 -65 -12 -17 -26 -42 -30 -56 -4 -14 -15
-33 -24 -43 -19 -23 -63 -97 -90 -153 -11 -23 -25 -45 -31 -49 -6 -4 -20 -26
-31 -49 -11 -22 -37 -70 -59 -106 -21 -36 -47 -84 -58 -106 -11 -23 -25 -45
-31 -49 -7 -4 -23 -30 -37 -58 -33 -68 -67 -129 -109 -197 -19 -30 -44 -75
-55 -99 -11 -24 -32 -57 -45 -73 -14 -16 -25 -38 -25 -48 0 -10 -5 -22 -10
-25 -6 -4 -25 -31 -43 -61 -18 -30 -49 -83 -69 -117 -21 -34 -45 -78 -54 -97
-9 -19 -27 -49 -40 -67 -13 -17 -24 -36 -24 -42 0 -9 -46 -90 -80 -141 -9 -14
-25 -41 -35 -60 -9 -19 -25 -44 -35 -55 -10 -11 -23 -37 -29 -57 -7 -20 -19
-42 -28 -50 -9 -7 -24 -31 -35 -53 -26 -55 -70 -129 -89 -152 -9 -10 -26 -38
-38 -63 -21 -46 -66 -128 -114 -210 -14 -25 -37 -66 -51 -91 -13 -25 -32 -51
-40 -58 -9 -8 -16 -19 -16 -26 0 -7 -16 -36 -35 -64 -19 -28 -35 -55 -35 -60
0 -5 -16 -32 -35 -61 -19 -29 -35 -57 -35 -63 0 -6 -8 -20 -18 -31 -10 -12
-25 -37 -32 -56 -7 -19 -21 -44 -30 -55 -16 -19 -38 -58 -84 -150 -11 -22 -30
-53 -43 -68 -13 -16 -23 -35 -23 -42 0 -7 -10 -26 -23 -42 -13 -15 -29 -42
-36 -60 -7 -18 -20 -38 -28 -45 -9 -7 -24 -31 -34 -53 -11 -22 -32 -62 -49
-90 -16 -27 -43 -76 -60 -107 -16 -31 -34 -59 -39 -62 -5 -4 -22 -30 -36 -59
-52 -104 -67 -127 -81 -127 -10 0 -14 -13 -14 -45 l0 -45 4655 0 c2701 0 4655
4 4655 9 0 9 102 183 147 252 12 19 23 40 23 46 0 5 13 28 28 49 16 21 35 53
43 69 30 58 107 193 180 315 21 36 45 79 54 95 8 17 33 59 55 95 21 36 49 85
61 110 12 25 28 52 35 60 13 15 52 84 82 145 8 17 26 45 39 63 13 17 31 47 39
65 8 17 30 57 49 87 18 30 57 96 85 145 28 50 69 119 90 155 22 36 45 76 52
90 6 14 20 36 29 50 10 14 30 48 45 75 15 28 39 73 54 100 16 28 43 76 61 108
19 32 41 71 50 88 10 16 28 47 42 67 14 20 31 49 38 63 38 73 63 115 74 129
12 13 40 64 93 165 8 17 25 44 38 60 12 17 25 41 29 55 4 14 15 34 25 45 16
18 38 55 79 134 7 14 24 43 38 64 13 21 42 73 65 115 22 42 45 84 52 92 7 8
24 35 38 60 14 25 42 74 63 110 21 36 49 85 63 110 14 25 38 68 53 95 16 28
40 71 54 97 13 26 29 50 35 53 6 4 22 30 35 58 23 48 116 207 148 252 8 11 24
40 36 65 12 25 36 70 54 101 17 32 54 97 81 145 27 49 60 102 73 117 12 16 23
34 23 40 0 7 12 30 27 52 15 22 35 54 44 70 9 17 31 56 50 89 19 32 48 83 64
112 17 30 49 88 73 130 23 41 42 81 42 87 0 6 12 23 26 37 34 33 69 85 94 138
11 24 27 51 36 60 9 9 23 30 31 47 7 16 31 59 53 95 22 36 50 88 64 116 13 28
29 54 35 58 6 4 19 26 31 49 11 23 33 65 50 92 17 28 40 70 53 95 12 26 32 59
45 74 12 16 22 34 22 41 0 7 14 29 30 50 17 21 30 43 30 49 0 6 12 29 27 51
27 39 36 56 97 166 15 29 34 59 41 66 8 7 17 23 21 36 3 12 16 36 29 52 12 17
26 41 30 55 4 14 18 39 30 55 13 17 26 41 30 55 4 14 15 34 25 45 10 11 27 38
38 61 11 22 28 46 36 53 9 8 16 22 16 31 0 10 11 32 25 48 13 16 34 49 45 73
27 57 71 132 91 156 9 10 22 34 29 53 7 19 21 44 30 55 9 11 24 36 34 55 16
32 39 74 103 187 11 21 30 49 42 62 12 13 21 31 21 39 0 8 12 31 27 50 14 19
37 55 51 81 13 25 37 69 53 96 15 28 38 69 49 92 11 23 25 45 31 49 6 3 20 27
31 53 10 25 28 55 38 66 10 11 21 31 25 44 4 14 20 42 36 64 16 22 29 45 29
52 0 7 9 20 20 30 11 10 20 24 20 30 0 7 16 36 35 64 19 28 35 54 35 57 0 4
25 49 55 99 30 51 62 109 70 128 8 20 20 39 26 42 6 4 20 28 31 54 10 25 26
53 34 62 8 8 24 35 37 60 57 109 116 209 137 234 10 11 27 41 38 66 11 26 25
49 31 53 6 4 19 26 30 49 11 23 36 69 55 102 20 33 47 83 60 111 14 28 32 54
40 57 9 4 16 15 16 26 0 11 11 33 25 49 14 17 31 45 37 64 6 18 18 41 27 51
19 23 63 97 89 152 11 22 29 49 41 59 11 11 21 26 21 35 0 9 16 41 35 71 19
30 35 59 35 66 0 6 9 19 20 29 10 9 24 34 31 54 6 20 19 45 29 56 10 11 27 38
38 61 11 22 28 46 36 53 9 8 16 22 16 31 0 10 11 31 24 47 13 15 31 45 39 65
9 21 21 43 27 50 17 19 55 85 90 153 16 33 52 96 80 140 27 44 50 85 50 91 0
6 7 17 16 24 8 8 22 29 29 48 8 18 26 47 40 64 14 16 25 38 25 48 0 10 11 32
25 48 14 17 32 46 40 65 8 20 19 38 25 42 5 3 18 25 29 49 10 24 24 47 30 51
7 4 22 30 35 58 12 29 30 58 39 66 10 7 17 19 17 25 0 7 13 33 29 58 16 25 32
56 36 69 4 13 15 33 25 44 10 11 21 30 24 42 4 12 20 38 36 58 17 21 30 43 30
50 0 6 13 29 30 51 16 21 30 46 30 55 0 9 13 33 30 54 16 20 32 46 36 58 3 12
12 29 19 37 7 8 21 35 31 60 9 25 23 52 30 60 15 19 81 188 99 255 7 28 22 70
33 95 11 25 23 76 26 114 4 38 16 94 28 125 17 46 22 92 28 261 10 261 -2 578
-25 640 -8 24 -23 87 -31 139 -8 52 -21 106 -29 120 -7 15 -21 56 -30 91 -9
36 -22 74 -29 85 -7 11 -18 39 -24 62 -15 49 -143 303 -172 340 -11 14 -20 31
-20 39 0 7 -11 26 -25 42 -14 17 -32 46 -40 65 -8 20 -20 39 -26 42 -6 4 -19
26 -30 49 -11 22 -35 68 -54 101 -19 33 -46 83 -59 112 -14 28 -30 54 -36 58
-6 3 -23 29 -38 57 -15 28 -36 67 -47 88 -11 20 -30 51 -42 67 -13 17 -23 38
-23 46 0 9 -11 29 -25 45 -14 17 -32 46 -40 65 -8 20 -19 38 -25 42 -5 3 -19
25 -30 48 -31 62 -66 125 -87 155 -10 15 -28 45 -39 67 -66 124 -80 148 -151
256 -13 19 -23 42 -23 50 0 7 -13 30 -30 49 -16 19 -32 47 -35 62 -4 14 -13
32 -21 39 -8 7 -22 28 -30 48 -8 20 -23 45 -33 56 -10 11 -22 31 -26 44 -4 14
-20 42 -36 64 -16 22 -29 46 -29 53 0 7 -11 26 -25 42 -14 17 -31 45 -37 64
-6 18 -18 41 -27 51 -19 23 -64 99 -87 147 -9 19 -23 43 -32 54 -10 10 -26 35
-37 56 -49 94 -78 145 -85 150 -4 3 -17 25 -29 50 -12 25 -37 72 -57 105 -19
33 -43 79 -54 102 -12 23 -25 45 -31 48 -5 4 -23 32 -40 63 -16 31 -45 82 -64
112 -19 30 -44 73 -55 95 -11 22 -36 65 -55 95 -19 30 -46 78 -59 107 -14 28
-30 54 -36 58 -5 3 -17 23 -25 43 -9 20 -38 74 -66 121 -28 47 -69 118 -92
156 -22 39 -51 86 -64 106 -12 19 -23 39 -23 43 0 4 -10 22 -22 39 -13 17 -32
48 -43 68 -33 62 -83 151 -115 204 -17 28 -39 68 -50 90 -10 22 -30 55 -44 74
-15 19 -26 42 -26 51 0 9 -10 25 -21 36 -12 10 -30 37 -41 59 -10 22 -34 65
-53 95 -19 30 -44 73 -55 95 -11 22 -38 69 -60 105 -22 36 -51 88 -65 115 -14
28 -41 75 -60 105 -19 30 -44 75 -56 100 -12 25 -32 58 -45 73 -13 16 -24 35
-24 42 0 7 -11 26 -24 42 -13 15 -26 38 -30 51 -4 12 -18 34 -30 50 -13 15
-27 38 -31 52 -4 14 -18 39 -30 55 -13 17 -30 46 -39 65 -9 19 -32 60 -51 90
-19 30 -42 71 -51 90 -9 19 -26 49 -39 65 -12 17 -26 41 -30 55 -4 14 -18 37
-31 52 -12 15 -28 43 -34 63 -6 19 -15 35 -19 35 -5 0 -23 28 -42 61 -19 34
-46 82 -61 108 -52 90 -78 137 -103 188 -14 28 -31 56 -39 62 -7 6 -21 30 -31
53 -10 24 -25 50 -32 59 -13 16 -22 32 -77 134 -12 22 -34 58 -49 80 -15 22
-27 44 -27 48 0 5 -11 22 -25 39 -14 16 -25 35 -25 42 0 7 -13 31 -30 54 -16
22 -32 52 -36 66 -3 14 -13 31 -21 38 -8 7 -26 35 -39 63 -14 27 -42 79 -64
115 -21 36 -46 81 -55 100 -9 19 -24 44 -34 55 -10 11 -22 31 -26 45 -4 14
-16 34 -26 45 -10 11 -25 37 -33 57 -9 20 -20 40 -26 43 -6 4 -24 32 -40 63
-17 31 -42 77 -57 102 -56 96 -84 147 -107 193 -13 26 -30 55 -38 65 -14 16
-37 56 -93 159 -13 24 -30 50 -39 59 -9 8 -19 27 -22 42 -4 15 -14 35 -23 45
-19 22 -64 98 -87 147 -9 19 -26 49 -39 65 -12 17 -26 41 -30 55 -4 14 -14 32
-22 41 -7 9 -26 39 -41 67 -38 70 -77 138 -117 202 -19 30 -44 75 -55 99 -11
24 -32 57 -45 73 -14 16 -25 35 -25 41 0 7 -13 31 -28 54 -60 93 -82 131 -82
142 0 6 -16 34 -35 62 -19 28 -35 57 -35 64 0 7 -7 19 -17 26 -9 8 -27 37 -40
64 -13 28 -39 75 -58 105 -19 30 -42 71 -51 90 -9 19 -24 44 -34 55 -11 11
-26 37 -34 57 -9 20 -20 39 -25 43 -5 3 -21 29 -36 58 -31 63 -69 132 -118
212 -20 33 -48 83 -61 112 -14 28 -30 54 -35 57 -6 4 -20 26 -31 49 -11 23
-36 67 -55 97 -19 30 -44 74 -55 96 -11 23 -26 47 -34 53 -8 7 -23 32 -32 57
-9 24 -20 44 -24 44 -4 0 -15 19 -25 42 -9 23 -26 55 -37 71 -21 29 -57 93
-90 159 -10 20 -23 40 -29 44 -6 3 -22 30 -35 58 -13 28 -44 83 -69 121 -24
39 -44 74 -45 78 0 5 -14 28 -30 52 -17 24 -30 48 -30 53 0 5 -10 22 -22 38
-13 15 -33 48 -46 74 -12 25 -33 63 -46 85 -13 22 -37 65 -53 95 -17 30 -42
73 -57 94 -14 21 -26 43 -26 47 0 5 -13 28 -30 51 -16 22 -30 46 -30 51 0 6
-11 25 -25 43 -14 18 -25 37 -25 41 0 5 -11 24 -25 43 -14 19 -25 42 -25 52 0
17 -174 18 -4660 18 l-4660 0 0 -50z"/>
</g>
</svg>
